<svg width="146" height="31" viewBox="0 0 146 31" fill="none" xmlns="http://www.w3.org/2000/svg">
<path d="M21.578 25.4902H10.548C9.41805 25.4902 8.49805 26.4002 8.49805 27.5302C8.49805 28.6602 9.41805 29.5702 10.538 29.5702H21.568C22.698 29.5702 23.608 28.6502 23.608 27.5302C23.608 26.4102 22.708 25.4902 21.578 25.4902Z" fill="#58DBC2"/>
<path d="M30.2875 11.52L20.6975 1.92C18.1375 -0.64 13.9775 -0.64 11.4175 1.92L1.83755 11.51C-1.02245 14.37 1.00755 19.27 5.05755 19.27H27.0775C31.1175 19.28 33.1475 14.38 30.2875 11.52ZM27.1375 15.15H4.97755C4.64755 15.15 4.47755 14.75 4.70755 14.51L14.3775 4.83C15.2975 3.9 16.8075 3.9 17.7275 4.83L27.3975 14.51C27.6375 14.74 27.4775 15.15 27.1375 15.15Z" fill="#58DBC2"/>
<path d="M54.7674 10.5296C52.3074 10.5296 50.2274 11.6596 49.1674 13.4096H48.8774V2.40961C48.8774 2.09961 48.6374 1.84961 48.3374 1.84961H44.3574C44.0574 1.84961 43.8174 2.09961 43.8174 2.40961V29.0296C43.8174 29.3396 44.0574 29.5896 44.3574 29.5896H48.3374C48.6374 29.5896 48.8774 29.3396 48.8774 29.0296V18.1496C48.8774 15.8196 50.3874 14.2596 52.6374 14.2596C54.5174 14.2596 55.7274 15.4996 55.7274 17.4296V29.0396C55.7274 29.3496 55.9674 29.5996 56.2674 29.5996H60.2474C60.5474 29.5996 60.7874 29.3496 60.7874 29.0396V16.6296C60.7874 12.9296 58.4274 10.5296 54.7674 10.5296Z" fill="#2E3C54"/>
<path d="M73.7672 10.5298C70.8572 10.5298 68.4572 11.4998 66.8072 13.3198C65.3472 14.9398 64.6172 17.2898 64.6172 20.3198C64.6172 26.3798 68.0372 29.9998 73.7672 29.9998C76.6772 29.9998 79.0772 29.0398 80.7272 27.2098C82.1772 25.5898 82.9172 23.2498 82.9172 20.2498C82.9172 14.1698 79.4972 10.5298 73.7672 10.5298ZM73.7372 26.3498C71.1872 26.3498 69.6672 24.0798 69.6672 20.2898C69.6672 16.4098 71.1772 14.1898 73.8072 14.1898C76.3572 14.1898 77.8772 16.4698 77.8772 20.2898C77.8672 24.1398 76.3572 26.3498 73.7372 26.3498Z" fill="#2E3C54"/>
<path d="M108.607 10.5298C105.597 10.5298 103.817 11.9898 102.777 13.7998L102.487 13.2698C101.517 11.4998 99.7073 10.5298 97.3973 10.5298C94.8873 10.5298 92.8673 11.6498 91.7173 13.5298L91.4573 13.5398L91.3773 11.4698C91.3673 11.1698 91.1273 10.9298 90.8373 10.9298H87.2373C86.9373 10.9298 86.6973 11.1798 86.6973 11.4898V29.0398C86.6973 29.3498 86.9373 29.5998 87.2373 29.5998H91.2173C91.5173 29.5998 91.7573 29.3498 91.7573 29.0398V17.9298C91.7573 15.7298 93.1873 14.2598 95.3073 14.2598C97.1073 14.2598 98.2273 15.3898 98.2273 17.2098V29.0398C98.2273 29.3498 98.4673 29.5998 98.7673 29.5998H102.747C103.047 29.5998 103.287 29.3498 103.287 29.0398V17.9298C103.287 15.7298 104.697 14.2598 106.797 14.2598C108.617 14.2598 109.747 15.3898 109.747 17.2098V29.0398C109.747 29.3498 109.987 29.5998 110.287 29.5998H114.267C114.567 29.5998 114.807 29.3498 114.807 29.0398V16.5198C114.797 12.8798 112.367 10.5298 108.607 10.5298Z" fill="#2E3C54"/>
<path d="M123.608 10.9297H119.628C119.328 10.9297 119.088 11.1797 119.088 11.4897V29.0397C119.088 29.3497 119.328 29.5997 119.628 29.5997H123.608C123.908 29.5997 124.148 29.3497 124.148 29.0397V11.4897C124.148 11.1797 123.908 10.9297 123.608 10.9297Z" fill="#2E3C54"/>
<path d="M123.607 1.58984H119.627C119.327 1.58984 119.087 1.83984 119.087 2.14984V5.91984C119.087 6.22984 119.327 6.47984 119.627 6.47984H123.607C123.907 6.47984 124.147 6.22984 124.147 5.91984V2.14984C124.147 1.83984 123.907 1.58984 123.607 1.58984Z" fill="#2E3C54"/>
<path d="M145.657 19.71C145.657 17.03 144.917 14.77 143.507 13.17C141.997 11.45 139.727 10.54 136.947 10.54C131.317 10.54 127.817 14.29 127.817 20.33C127.817 23.25 128.647 25.67 130.217 27.33C131.887 29.11 134.317 30.01 137.437 30.01C140.407 30.01 142.697 29.17 144.417 27.45C144.527 27.34 144.597 27.18 144.587 27.01C144.587 26.85 144.517 26.71 144.397 26.6L142.287 24.74C142.067 24.55 141.757 24.56 141.557 24.76C140.487 25.89 139.157 26.46 137.607 26.46C135.037 26.46 133.517 25.24 132.997 22.75C132.987 22.71 132.977 22.67 132.967 22.63L144.877 21.11C144.877 21.11 145.517 21.09 145.627 20.56C145.637 20.52 145.647 20.48 145.647 20.44L145.657 19.71ZM132.837 18.92L132.877 18.37C133.157 15.56 134.557 14.08 136.907 14.08C138.787 14.08 139.967 14.98 140.497 16.83C140.587 17.04 140.647 17.29 140.687 17.59C140.727 17.88 140.757 18.15 140.777 18.4L132.797 19.39C132.817 19.24 132.827 19.08 132.837 18.92Z" fill="#2E3C54"/>
</svg>
